<svg width="110" height="33" viewBox="0 0 110 33" fill="none" xmlns="http://www.w3.org/2000/svg">
<g clip-path="url(#clip0_101_128)">
<path d="M20.6938 13.7357C20.815 13.6641 20.9361 13.6497 21.0438 13.6784C21.1515 13.707 21.2458 13.7786 21.3131 13.8789C21.3804 13.9792 21.4208 14.0937 21.4208 14.2083C21.4208 14.3229 21.3804 14.4375 21.2862 14.5377C20.438 15.3112 19.5628 16.013 18.6473 16.6432C17.7317 17.2734 16.8027 17.875 15.8333 18.4336C14.837 18.9922 13.8407 19.5078 12.8309 19.9948C11.8211 20.4818 10.7844 20.9258 9.7207 21.3268C8.84555 21.6706 7.95693 21.9713 7.02792 22.2292C6.5163 22.3867 6.00467 22.5156 5.46611 22.6159C4.94102 22.7161 4.41593 22.7448 3.89084 22.7161C3.44653 22.6875 3.01568 22.5872 2.58484 22.4297C2.154 22.2721 1.77701 22.043 1.42695 21.7565C1.07688 21.47 0.794142 21.1263 0.551792 20.7252C0.309442 20.3242 0.147875 19.8802 0.067092 19.3789C-0.0136914 18.8776 -0.0271553 18.3763 0.0132364 17.875C0.0536281 17.3737 0.147875 16.8724 0.295978 16.3711C0.444081 15.8698 0.605648 15.3971 0.82107 14.9101C1.02303 14.4375 1.25191 13.9792 1.4808 13.5495C1.89818 12.7617 2.36942 12.0169 2.89451 11.3151C3.4196 10.6133 3.98508 9.94009 4.59096 9.30988C5.22376 8.67968 5.88349 8.09244 6.55669 7.56249C7.24335 7.01822 7.95693 6.51692 8.68398 6.05858C9.49182 5.55728 10.34 5.08462 11.2152 4.64061C12.1038 4.1966 13.0059 3.91014 13.9484 3.76692C14.3119 3.70962 14.7293 3.68098 15.187 3.6953C15.6448 3.6953 16.0891 3.78124 16.52 3.92447C16.9374 4.0677 17.3009 4.28254 17.5971 4.58332C17.8933 4.8841 18.0414 5.29947 18.0549 5.82942C18.0549 6.08723 18.0145 6.33072 17.9471 6.55988C17.8664 6.78905 17.7721 7.00389 17.6509 7.21874C17.5298 7.43358 17.3817 7.6341 17.2336 7.83462C17.0855 8.02082 16.9239 8.20702 16.7758 8.37889C16.4661 8.75129 16.1295 9.09504 15.766 9.41014C15.4025 9.72525 15.0255 10.026 14.635 10.2982C14.5273 10.3698 14.4331 10.3841 14.3388 10.3555C14.258 10.3268 14.1907 10.2552 14.1369 10.1693C14.083 10.0833 14.0695 9.98306 14.083 9.8828C14.0965 9.78254 14.1503 9.68228 14.2446 9.61066C15.0793 9.0091 15.7795 8.29296 16.3584 7.47655C16.4661 7.319 16.5873 7.14712 16.7085 6.9466C16.8296 6.7604 16.9239 6.55988 16.9912 6.34504C17.0451 6.14452 17.0585 5.944 17.0181 5.74348C16.9777 5.55728 16.8566 5.3854 16.6411 5.24218C16.4661 5.12759 16.2776 5.04165 16.0622 4.98436C15.8468 4.92707 15.6314 4.89843 15.4025 4.8841C15.187 4.8841 14.9582 4.8841 14.7427 4.91275C14.5273 4.94139 14.3119 4.97004 14.1234 5.01301C13.6252 5.12759 13.1405 5.27082 12.6693 5.45702C12.1981 5.64322 11.7403 5.84374 11.296 6.08723C9.93613 6.77473 8.65706 7.57681 7.45877 8.52212C6.24702 9.45311 5.16991 10.5417 4.20051 11.7877C3.72927 12.3893 3.29843 13.0338 2.90797 13.707C2.51752 14.3945 2.18092 15.1107 1.91165 15.8411C1.76354 16.2135 1.6289 16.6002 1.52119 17.0156C1.41348 17.431 1.34616 17.8463 1.3327 18.2617C1.3327 18.6771 1.37309 19.0781 1.4808 19.4648C1.58851 19.8515 1.8174 20.2096 2.14053 20.4961C2.46367 20.7969 2.81373 20.9974 3.19071 21.0976C3.5677 21.1979 3.97162 21.2409 4.37554 21.2265C4.77945 21.2265 5.19684 21.1549 5.60075 21.0547C6.00467 20.9544 6.39512 20.8542 6.75865 20.7396C8.37431 20.2669 9.97652 19.6797 11.5518 18.9635C13.154 18.2331 14.7158 17.4167 16.2103 16.5143C17.7048 15.612 19.1858 14.6667 20.6668 13.707L20.6938 13.7357Z" fill="#E0E0E0"/>
<path d="M36.3929 13.6927C36.5275 13.6641 36.6487 13.6927 36.7699 13.7357C36.8776 13.793 36.9718 13.8789 37.0257 13.9792C37.0796 14.0794 37.1065 14.2083 37.1065 14.3372C37.1065 14.4661 37.0392 14.595 36.9314 14.7096C36.6622 14.9961 36.3525 15.2253 36.0024 15.4114C35.6524 15.5976 35.3023 15.7838 34.9657 15.97C34.6426 16.1419 34.3195 16.2995 33.9963 16.457C33.6732 16.6146 33.3366 16.7721 33 16.9297C32.3268 17.2305 31.6536 17.4883 30.9804 17.7031C30.3072 17.918 29.6071 18.0898 28.8935 18.2044C28.53 18.2617 28.1665 18.2904 27.8029 18.2617C27.4394 18.2617 27.0759 18.1614 26.7258 17.9896C26.4431 17.832 26.2007 17.6172 25.9853 17.3594C25.7699 17.1016 25.6352 16.7864 25.5679 16.457C25.5275 16.2279 25.5275 15.9987 25.5679 15.7552L25.0024 16.1562C24.612 16.4427 24.2215 16.7148 23.8176 16.987C23.4137 17.2591 23.0098 17.5312 22.6059 17.8034C22.2289 18.0469 21.8519 18.2904 21.4884 18.5338C21.1248 18.7773 20.7478 19.0065 20.3574 19.2213C20.0073 19.4219 19.6438 19.5508 19.2534 19.5937C18.8629 19.651 18.4994 19.5508 18.1493 19.3073C17.7723 19.0351 17.5704 18.72 17.53 18.3476C17.4896 17.9753 17.53 17.6029 17.6915 17.2161C17.8396 16.8294 18.0416 16.457 18.284 16.0989C18.5263 15.7409 18.7687 15.4401 18.9841 15.1966C19.4553 14.6667 19.9939 14.2083 20.5863 13.8073C21.1922 13.4062 21.825 13.0911 22.4982 12.862C23.1713 12.6328 23.858 12.5039 24.5581 12.4609C25.2583 12.4323 25.9449 12.5039 26.6181 12.7044C26.7393 12.7474 26.8335 12.819 26.9008 12.9336C26.9951 12.819 27.0893 12.7044 27.1701 12.6042C27.2509 12.5039 27.3586 12.4036 27.4663 12.3177C27.5337 12.2604 27.6144 12.2318 27.7087 12.2174C27.8029 12.2174 27.8837 12.2174 27.9645 12.2604C28.0453 12.3034 28.0991 12.3607 28.1395 12.4466C28.1799 12.5325 28.1799 12.6185 28.1395 12.7331C28.0318 13.0625 27.8972 13.3776 27.7221 13.6641C27.5471 13.9505 27.399 14.2656 27.2509 14.5664C27.1432 14.7956 27.022 15.0534 26.9008 15.3542C26.7662 15.6549 26.7527 15.9414 26.847 16.2135C26.9412 16.4713 27.1028 16.6432 27.3452 16.7292C27.574 16.8151 27.8433 16.8437 28.1261 16.8294C28.4088 16.8294 28.6915 16.7721 28.9743 16.7148C29.257 16.6575 29.4725 16.6003 29.6475 16.5573C30.2399 16.3997 30.8054 16.2135 31.3709 16.013C31.9229 15.8125 32.4884 15.569 33.0538 15.3112C33.3231 15.1823 33.5924 15.0534 33.8617 14.9101C34.131 14.7812 34.4002 14.6237 34.6695 14.4661C34.9388 14.3229 35.2215 14.1654 35.5043 14.0078C35.787 13.8503 36.0967 13.7213 36.3929 13.6497V13.6927ZM25.918 13.8789C25.918 13.8789 25.8776 13.8216 25.8776 13.7786C25.8776 13.7786 25.8776 13.75 25.9045 13.7357C25.339 13.707 24.787 13.7357 24.2485 13.8073C23.7099 13.8789 23.1848 14.0221 22.6732 14.2226C21.6095 14.638 20.694 15.2682 19.9131 16.1276C19.7246 16.3424 19.5496 16.5716 19.3745 16.8008C19.1995 17.0299 19.0514 17.2878 18.9168 17.5599C18.8764 17.6458 18.836 17.7461 18.7956 17.875C18.7552 17.9896 18.7687 18.1042 18.8494 18.1901C18.9302 18.276 19.0379 18.3047 19.186 18.276C19.3341 18.2474 19.4553 18.2187 19.5496 18.1758C19.8592 18.0325 20.1689 17.8607 20.4651 17.6601C20.7613 17.4596 21.071 17.2591 21.3672 17.0586C21.6769 16.8581 21.9731 16.6575 22.2693 16.457C22.5655 16.2565 22.8617 16.056 23.1713 15.8555L24.962 14.6094L25.9045 13.8789H25.918Z" fill="#E0E0E0"/>
<path d="M53.3843 13.7786C53.5728 13.6497 53.7479 13.6211 53.9094 13.6784C54.071 13.7357 54.1922 13.8503 54.2864 14.0078C54.3807 14.1654 54.4076 14.3372 54.3807 14.5378C54.3537 14.7383 54.2595 14.8958 54.0844 15.0247C53.142 15.7122 52.186 16.3568 51.2032 16.9727C50.2203 17.5885 49.1836 18.0898 48.093 18.4766C47.6218 18.6341 47.1371 18.763 46.612 18.8776C46.0869 18.9922 45.5887 19.0638 45.0771 19.0924C44.5924 19.1211 44.1212 19.0352 43.6634 18.8203C43.2056 18.6198 42.8556 18.276 42.6132 17.832C42.3843 17.4023 42.2766 16.9583 42.3035 16.5C42.317 16.0417 42.3843 15.569 42.492 15.125C42.5324 14.9674 42.5728 14.8099 42.6132 14.638C42.6536 14.4805 42.694 14.3086 42.7479 14.151C42.7748 14.0651 42.8017 13.9648 42.8152 13.8503C42.8421 13.7357 42.8556 13.6354 42.8825 13.5352L42.317 13.8503C41.4553 14.3659 40.634 14.9245 39.8666 15.5547C39.0857 16.1706 38.3452 16.8437 37.6181 17.5599C37.4565 17.7174 37.2815 17.8464 37.1065 17.9609C36.9315 18.0755 36.716 18.1042 36.4737 18.0469C36.2987 17.9896 36.1505 17.9036 36.0159 17.7747C35.8813 17.6458 35.787 17.4883 35.7332 17.3021C35.6658 17.0729 35.6658 16.8294 35.7332 16.5716C35.8005 16.3138 35.8678 16.0703 35.9351 15.8411C36.0024 15.5833 36.0698 15.3255 36.1371 15.082C36.2044 14.8385 36.2717 14.5807 36.339 14.3229C36.366 14.2227 36.4198 14.151 36.5006 14.1081C36.5814 14.0651 36.6622 14.0508 36.743 14.0508C36.8237 14.0508 36.8911 14.0937 36.9584 14.1654C37.0257 14.237 37.0526 14.3229 37.0526 14.4232C37.0526 15.0104 36.9988 15.569 36.918 16.1133C36.918 16.1419 36.918 16.2135 36.8911 16.3281C36.8776 16.4427 36.8641 16.5573 36.8507 16.6719C37.1603 16.2852 37.5104 15.9271 37.9009 15.5977C38.2913 15.2682 38.6683 14.9531 39.0453 14.6523C39.4088 14.3659 39.7723 14.0937 40.1359 13.8216C40.4994 13.5495 40.8764 13.2917 41.2668 13.0482C41.4553 12.9193 41.6438 12.7904 41.8458 12.6615C42.0477 12.5325 42.2497 12.418 42.4651 12.3034C42.6536 12.2031 42.8421 12.1315 43.0171 12.1029C43.1922 12.0742 43.3941 12.1029 43.5961 12.2174C43.8384 12.3464 44 12.5039 44.0673 12.7044C44.1346 12.9049 44.175 13.1198 44.1616 13.3633C44.1616 13.5924 44.1077 13.8359 44.0539 14.0651C44 14.2943 43.9461 14.5234 43.9058 14.7383C43.8654 14.9102 43.825 15.0964 43.7711 15.3112C43.7173 15.5117 43.6769 15.7266 43.6365 15.9271C43.6095 16.1276 43.5961 16.3424 43.6095 16.543C43.6095 16.7435 43.6769 16.9297 43.7846 17.1016C43.8923 17.2878 44.0269 17.4167 44.202 17.4883C44.377 17.5599 44.552 17.6029 44.7405 17.6029C44.929 17.6029 45.1175 17.6029 45.3195 17.5599C45.5214 17.5312 45.6964 17.4883 45.858 17.4596C46.3158 17.3737 46.7601 17.2734 47.2044 17.1445C47.6487 17.0156 48.0796 16.8581 48.5104 16.6575C49.3856 16.2852 50.2069 15.8411 51.0012 15.3255C51.7956 14.8099 52.5765 14.2799 53.3709 13.7357L53.3843 13.7786Z" fill="#E0E0E0"/>
<path d="M64.0343 13.8216C64.142 13.7214 64.2497 13.6784 64.3709 13.6784C64.4921 13.6784 64.5998 13.707 64.6805 13.7786C64.7613 13.8503 64.8286 13.9505 64.8556 14.0794C64.8825 14.2083 64.869 14.3372 64.8017 14.4661C64.5324 14.9818 64.2093 15.4544 63.8323 15.9128C63.4553 16.3711 63.0514 16.7721 62.6071 17.1589C62.1628 17.5456 61.705 17.8893 61.2203 18.2044C60.7356 18.5195 60.2509 18.7917 59.7528 19.0352C59.3354 19.2357 58.8776 19.4362 58.3794 19.651C57.8813 19.8659 57.3697 20.0234 56.8446 20.1237C56.3195 20.224 55.8078 20.224 55.3097 20.138C54.8115 20.0521 54.3672 19.8229 53.9633 19.4362C53.5728 19.0638 53.317 18.6341 53.1958 18.1328C53.0747 17.6315 53.0343 17.1159 53.0612 16.5573C53.0881 16.013 53.1555 15.4544 53.2766 14.9102C53.3843 14.3659 53.5055 13.8646 53.6132 13.4062C53.8017 12.5469 54.0171 11.7018 54.246 10.8854C54.4749 10.0547 54.7442 9.23828 55.0269 8.42188C54.4211 8.45052 53.8152 8.47917 53.2228 8.52214C52.6304 8.5651 52.011 8.60807 51.4186 8.66537C51.2974 8.66537 51.2032 8.63672 51.1224 8.56511C51.0551 8.47917 51.0012 8.37891 50.9878 8.27865C50.9878 8.17839 50.9878 8.0638 51.0416 7.96354C51.082 7.86328 51.1763 7.80599 51.2974 7.79167C51.9841 7.67708 52.6708 7.59115 53.3574 7.51953C54.0441 7.44792 54.7307 7.39063 55.4174 7.33333C56.3599 4.88412 57.4639 2.53516 58.7295 0.300782C58.8237 0.14323 58.9449 0.0572927 59.0796 0.0286469C59.2142 1.02632e-06 59.3488 0.0286469 59.47 0.100261C59.5912 0.171876 59.672 0.272136 59.7258 0.415366C59.7797 0.558595 59.7528 0.716147 59.672 0.888022C58.6353 2.89323 57.7332 5.01302 56.9523 7.21875C57.1004 7.21875 57.2485 7.21875 57.41 7.21875C57.5581 7.21875 57.7197 7.20443 57.8678 7.1901C58.2313 7.1901 58.5949 7.16146 58.9853 7.13281C59.3623 7.10417 59.7393 7.13281 60.0759 7.23307C60.2105 7.26172 60.3182 7.33333 60.3856 7.46224C60.4529 7.59115 60.4933 7.70573 60.4933 7.84896C60.4933 7.99219 60.4663 8.10677 60.399 8.22135C60.3317 8.33594 60.224 8.40755 60.0759 8.4362C59.7258 8.50781 59.3623 8.52214 58.9853 8.49349C58.6083 8.46484 58.2313 8.4362 57.8544 8.4362C57.6389 8.4362 57.4235 8.40755 57.2081 8.40755H56.5618C56.2925 9.26693 56.0502 10.112 55.8213 10.9714C55.6059 11.8307 55.3905 12.6901 55.202 13.5638C55.0943 14.0508 54.9865 14.5234 54.8923 15.0104C54.798 15.4974 54.7307 15.9701 54.7038 16.4714C54.7038 16.6289 54.6903 16.8008 54.6903 16.9727C54.6903 17.1445 54.7038 17.3307 54.7442 17.5026C54.7711 17.6745 54.8384 17.832 54.9192 17.9753C55 18.1185 55.1077 18.2331 55.2558 18.319C55.4174 18.4049 55.5924 18.4622 55.7674 18.4766C55.9425 18.5052 56.131 18.5052 56.3329 18.4766C56.5214 18.4622 56.7099 18.4193 56.8984 18.362C57.0734 18.3047 57.2485 18.2617 57.41 18.2188C57.8409 18.1042 58.2448 17.9753 58.6353 17.8177C59.0257 17.6602 59.4162 17.4883 59.8066 17.2878C60.6279 16.8438 61.3684 16.3281 62.0282 15.7266C62.6879 15.125 63.3611 14.5091 64.0343 13.8646V13.8216Z" fill="#E0E0E0"/>
<path d="M74.6304 16.1133C74.2399 16.3138 73.8629 16.5143 73.4725 16.7148C73.0955 16.9154 72.705 17.1016 72.3146 17.2878C71.6683 17.5742 71.0355 17.8464 70.3892 18.1185C69.7564 18.3763 69.0967 18.6055 68.41 18.7773C67.858 18.9206 67.306 19.0208 66.7405 19.0925C66.175 19.1497 65.6095 19.1211 65.0575 18.9922C64.7479 18.9206 64.4651 18.806 64.2093 18.6341C63.9535 18.4622 63.7246 18.2617 63.5226 18.0182C63.3342 17.7891 63.186 17.5169 63.0783 17.2018C62.9841 16.901 62.9437 16.5716 62.9841 16.2279C63.011 15.8555 63.0918 15.4974 63.2399 15.1537C63.388 14.8099 63.563 14.4662 63.7785 14.1654C63.8592 14.0365 63.9535 13.9076 64.0612 13.7643C64.1689 13.6211 64.2901 13.4922 64.4113 13.3633C64.5324 13.2487 64.6671 13.1341 64.8152 13.0482C64.9498 12.9622 65.1114 12.9193 65.2729 12.9193C65.448 12.9193 65.5692 12.9766 65.6499 13.1055C65.7307 13.2487 65.7577 13.3919 65.7307 13.5495C65.7038 13.7357 65.6365 13.8932 65.5153 14.0221C65.3941 14.151 65.2864 14.28 65.1787 14.4232C64.9902 14.681 64.8286 14.9388 64.694 15.1966C64.5728 15.4401 64.4786 15.7122 64.3978 16.013C64.317 16.3138 64.3439 16.5859 64.4786 16.8438C64.5728 17.0156 64.694 17.1445 64.8556 17.2448C65.0171 17.3451 65.1922 17.4167 65.3941 17.474C65.5826 17.5313 65.7846 17.5599 65.9865 17.5599C66.1885 17.5599 66.377 17.5599 66.552 17.5599C67.0367 17.5313 67.508 17.4453 67.9792 17.3164C68.4504 17.1875 68.9082 17.03 69.366 16.8724C69.9584 16.6576 70.5239 16.4284 71.0759 16.1706C71.6279 15.9271 72.1799 15.655 72.7454 15.3685C73.0551 15.2109 73.3513 15.0534 73.6475 14.9102C73.9437 14.7669 74.2399 14.6094 74.5361 14.4518C74.8458 14.2943 75.1554 14.151 75.4651 14.0078C75.7748 13.8646 76.0979 13.7643 76.4345 13.6927C76.5557 13.6927 76.6634 13.6927 76.7711 13.75C76.8654 13.793 76.9461 13.8646 77.0135 13.9648C77.0673 14.0508 77.0942 14.1654 77.0942 14.28C77.0942 14.3945 77.0404 14.4948 76.9461 14.5951C76.623 14.9531 76.2595 15.2396 75.869 15.4688C75.4786 15.6979 75.0747 15.9128 74.6707 16.1276L74.6304 16.1133ZM66.4308 11.6159C66.3366 11.7162 66.2423 11.7591 66.1346 11.7448C66.0269 11.7448 65.9327 11.6875 65.8654 11.6016C65.798 11.5156 65.7442 11.4297 65.7307 11.3151C65.7307 11.2005 65.7577 11.1003 65.8519 11C66.0808 10.7565 66.3231 10.556 66.5655 10.3841C66.8078 10.2266 67.0906 10.0833 67.4002 9.96876C67.4945 9.94011 67.5753 9.94011 67.6426 9.98308C67.7099 10.026 67.7503 10.0833 67.7772 10.1693C67.8042 10.2409 67.8042 10.3268 67.7907 10.4128C67.7907 10.4987 67.7368 10.5703 67.6561 10.6276C67.4406 10.7852 67.2252 10.9427 67.0233 11.1003C66.8213 11.2578 66.6193 11.4297 66.4308 11.6159Z" fill="#E0E0E0"/>
<path d="M93.5337 13.7786C93.7222 13.6497 93.8972 13.6211 94.0588 13.6784C94.2203 13.7357 94.3415 13.8503 94.4357 14.0078C94.53 14.1654 94.5569 14.3372 94.53 14.5378C94.5031 14.7383 94.4088 14.8958 94.2338 15.0247C93.2913 15.7122 92.3354 16.3568 91.3525 16.9727C90.3696 17.5885 89.3329 18.0898 88.2424 18.4766C87.7711 18.6341 87.2864 18.763 86.7613 18.8776C86.2362 18.9922 85.7381 19.0638 85.2264 19.0924C84.7417 19.1211 84.2705 19.0352 83.8127 18.8203C83.355 18.6198 83.0049 18.276 82.7625 17.832C82.5337 17.4023 82.426 16.9583 82.4529 16.5C82.4663 16.0417 82.5337 15.569 82.6414 15.125C82.6818 14.9674 82.7222 14.8099 82.7625 14.638C82.8029 14.4805 82.8433 14.3086 82.8972 14.151C82.9241 14.0651 82.951 13.9648 82.9645 13.8503C82.9914 13.7357 83.0049 13.6354 83.0318 13.5352L82.4663 13.8503C81.6047 14.3659 80.7834 14.9245 80.0159 15.5547C79.235 16.1706 78.4945 16.8437 77.7674 17.5599C77.6059 17.7174 77.4308 17.8464 77.2558 17.9609C77.0808 18.0755 76.8654 18.1042 76.623 18.0469C76.448 17.9896 76.2999 17.9036 76.1652 17.7747C76.0306 17.6458 75.9364 17.4883 75.8825 17.3021C75.8152 17.0729 75.8152 16.8294 75.8825 16.5716C75.9498 16.3138 76.0171 16.0703 76.0845 15.8411C76.1518 15.5833 76.2191 15.3255 76.2864 15.082C76.3537 14.8385 76.4211 14.5807 76.4884 14.3229C76.5153 14.2227 76.5692 14.151 76.6499 14.1081C76.7307 14.0651 76.8115 14.0508 76.8923 14.0508C76.9731 14.0508 77.0404 14.0937 77.1077 14.1654C77.175 14.237 77.202 14.3229 77.202 14.4232C77.202 15.0104 77.1481 15.569 77.0673 16.1133C77.0673 16.1419 77.0673 16.2135 77.0404 16.3281C77.0269 16.4427 77.0135 16.5573 77 16.6719C77.3097 16.2852 77.6597 15.9271 78.0502 15.5977C78.4406 15.2682 78.8176 14.9531 79.1946 14.6523C79.5581 14.3659 79.9217 14.0937 80.2852 13.8216C80.6487 13.5495 81.0257 13.2917 81.4162 13.0482C81.6047 12.9193 81.7931 12.7904 81.9951 12.6615C82.1971 12.5325 82.399 12.418 82.6144 12.3034C82.8029 12.2031 82.9914 12.1315 83.1665 12.1029C83.3415 12.0742 83.5435 12.1029 83.7454 12.2174C83.9878 12.3464 84.1493 12.5039 84.2166 12.7044C84.284 12.9049 84.3244 13.1198 84.3109 13.3633C84.3109 13.5924 84.257 13.8359 84.2032 14.0651C84.1493 14.2943 84.0955 14.5234 84.0551 14.7383C84.0147 14.9102 83.9743 15.0964 83.9204 15.3112C83.8666 15.5117 83.8262 15.7266 83.7858 15.9271C83.7589 16.1276 83.7454 16.3424 83.7589 16.543C83.7589 16.7435 83.8262 16.9297 83.9339 17.1016C84.0416 17.2878 84.1763 17.4167 84.3513 17.4883C84.5263 17.5599 84.7013 17.6029 84.8898 17.6029C85.0783 17.6029 85.2668 17.6029 85.4688 17.5599C85.6707 17.5312 85.8458 17.4883 86.0073 17.4596C86.4651 17.3737 86.9094 17.2734 87.3537 17.1445C87.798 17.0156 88.2289 16.8581 88.6597 16.6575C89.5349 16.2852 90.3562 15.8411 91.1505 15.3255C91.9449 14.8099 92.7258 14.2799 93.5202 13.7357L93.5337 13.7786Z" fill="#E0E0E0"/>
<path d="M109.273 13.6927C109.408 13.6641 109.529 13.6927 109.65 13.7357C109.758 13.793 109.852 13.8789 109.906 13.9792C109.96 14.0794 109.987 14.2083 109.987 14.3372C109.987 14.4661 109.919 14.595 109.812 14.7096C109.542 14.9961 109.233 15.2253 108.883 15.4114C108.532 15.5976 108.182 15.7838 107.846 15.97C107.523 16.1419 107.2 16.2995 106.876 16.457C106.553 16.6146 106.217 16.7721 105.88 16.9297C105.207 17.2305 104.534 17.4883 103.86 17.7031C103.187 17.918 102.487 18.0898 101.774 18.2044C101.41 18.2617 101.047 18.2904 100.683 18.2617C100.319 18.2617 99.9559 18.1614 99.6059 17.9896C99.3231 17.832 99.0808 17.6172 98.8654 17.3594C98.6499 17.1016 98.5153 16.7864 98.448 16.457C98.4076 16.2279 98.4076 15.9987 98.448 15.7552L97.8825 16.1562C97.492 16.4427 97.1016 16.7148 96.6977 16.987C96.2938 17.2591 95.8898 17.5312 95.4859 17.8034C95.1089 18.0469 94.7319 18.2904 94.3684 18.5338C94.0049 18.7773 93.6279 19.0065 93.2375 19.2213C92.8874 19.4219 92.5239 19.5508 92.1334 19.5937C91.743 19.651 91.3794 19.5508 91.0294 19.3073C90.6524 19.0351 90.4504 18.72 90.41 18.3476C90.3697 17.9753 90.41 17.6029 90.5716 17.2161C90.7197 16.8294 90.9217 16.457 91.164 16.0989C91.4064 15.7409 91.6487 15.4401 91.8641 15.1966C92.3354 14.6667 92.8739 14.2083 93.4663 13.8073C94.0722 13.4062 94.705 13.0911 95.3782 12.862C96.0514 12.6328 96.7381 12.5039 97.4382 12.4609C98.1383 12.4323 98.825 12.5039 99.4982 12.7044C99.6193 12.7474 99.7136 12.819 99.7809 12.9336C99.8752 12.819 99.9694 12.7044 100.05 12.6042C100.131 12.5039 100.239 12.4036 100.346 12.3177C100.414 12.2604 100.494 12.2318 100.589 12.2174C100.683 12.2174 100.764 12.2174 100.845 12.2604C100.925 12.3034 100.979 12.3607 101.02 12.4466C101.06 12.5325 101.06 12.6185 101.02 12.7331C100.912 13.0625 100.777 13.3776 100.602 13.6641C100.427 13.9505 100.279 14.2656 100.131 14.5664C100.023 14.7956 99.9021 15.0534 99.7809 15.3542C99.6463 15.6549 99.6328 15.9414 99.7271 16.2135C99.8213 16.4713 99.9829 16.6432 100.225 16.7292C100.454 16.8151 100.723 16.8437 101.006 16.8294C101.289 16.8294 101.572 16.7721 101.854 16.7148C102.137 16.6575 102.353 16.6003 102.528 16.5573C103.12 16.3997 103.685 16.2135 104.251 16.013C104.803 15.8125 105.368 15.569 105.934 15.3112C106.203 15.1823 106.472 15.0534 106.742 14.9101C107.011 14.7812 107.28 14.6237 107.55 14.4661C107.819 14.3229 108.102 14.1654 108.384 14.0078C108.667 13.8503 108.977 13.7213 109.273 13.6497V13.6927ZM98.798 13.8789C98.798 13.8789 98.7577 13.8216 98.7577 13.7786C98.7577 13.7786 98.7577 13.75 98.7846 13.7357C98.2191 13.707 97.6671 13.7357 97.1285 13.8073C96.59 13.8789 96.0649 14.0221 95.5533 14.2226C94.4896 14.638 93.5741 15.2682 92.7932 16.1276C92.6047 16.3424 92.4296 16.5716 92.2546 16.8008C92.0796 17.0299 91.9315 17.2878 91.7968 17.5599C91.7564 17.6458 91.716 17.7461 91.6756 17.875C91.6353 17.9896 91.6487 18.1042 91.7295 18.1901C91.8103 18.276 91.918 18.3047 92.0661 18.276C92.2142 18.2474 92.3354 18.2187 92.4296 18.1758C92.7393 18.0325 93.049 17.8607 93.3452 17.6601C93.6414 17.4596 93.951 17.2591 94.2473 17.0586C94.5569 16.8581 94.8531 16.6575 95.1493 16.457C95.4455 16.2565 95.7417 16.056 96.0514 15.8555L97.8421 14.6094L98.7846 13.8789H98.798Z" fill="#E0E0E0"/>
<path d="M18.1628 26.8984V32.7135H17.5031V26.8984H18.1628ZM17.8666 26.8984H18.9841C19.3342 26.8984 19.6573 26.9701 19.9266 27.1133C20.2093 27.2565 20.4247 27.457 20.5863 27.7148C20.7479 27.9727 20.8286 28.2878 20.8286 28.6458C20.8286 29.0039 20.7479 29.3047 20.5863 29.5768C20.4247 29.8346 20.1958 30.0352 19.9266 30.1784C19.6438 30.3216 19.3342 30.3932 18.9841 30.3932H17.8666V29.763H18.9841C19.213 29.763 19.4284 29.7201 19.6034 29.6341C19.7785 29.5482 19.9266 29.4193 20.0208 29.2474C20.1285 29.0755 20.1689 28.875 20.1689 28.6458C20.1689 28.4167 20.1151 28.2018 20.0208 28.0443C19.9131 27.8724 19.7785 27.7435 19.6034 27.6576C19.4284 27.5716 19.213 27.5286 18.9841 27.5286H17.8666V26.9128V26.8984ZM19.213 29.849L21.1652 32.7135H20.3439L18.4725 29.849H19.213Z" fill="#E0E0E0"/>
<path d="M25.6487 26.8984V32.7135H24.989V26.8984H25.6487ZM25.3525 26.8984H28.1126V27.5573H25.3525V26.8984ZM25.3525 29.2187H27.951V29.8776H25.3525V29.2187ZM25.3525 32.0404H28.1126V32.6992H25.3525V32.0404Z" fill="#E0E0E0"/>
<path d="M33 31.5677C33.1346 31.7396 33.2962 31.8828 33.4712 31.9831C33.6463 32.0833 33.8348 32.1263 34.0502 32.1263C34.3464 32.1263 34.5753 32.0404 34.7503 31.8685C34.9253 31.6966 35.0196 31.4818 35.0196 31.2096C35.0196 30.9375 34.9657 30.737 34.8445 30.5794C34.7368 30.4219 34.5753 30.293 34.4002 30.207C34.2117 30.1068 34.0232 30.0208 33.8078 29.9492C33.6732 29.9063 33.5251 29.8346 33.3501 29.7487C33.1885 29.6628 33.0269 29.5625 32.8788 29.4479C32.7307 29.3333 32.6095 29.1758 32.5018 28.9896C32.3941 28.8034 32.3537 28.5885 32.3537 28.3164C32.3537 28.0299 32.421 27.7721 32.5557 27.543C32.6903 27.3138 32.8788 27.1419 33.1212 27.013C33.3635 26.8841 33.6328 26.8125 33.9425 26.8125C34.2521 26.8125 34.4945 26.8698 34.7234 26.9844C34.9388 27.099 35.1273 27.2565 35.2889 27.4427C35.4504 27.6289 35.5716 27.8294 35.6524 28.0299L35.0869 28.3737C35.0196 28.2305 34.9388 28.0872 34.8311 27.944C34.7234 27.8008 34.6022 27.6862 34.4541 27.6003C34.306 27.5143 34.131 27.4714 33.9155 27.4714C33.6193 27.4714 33.4039 27.543 33.2693 27.7005C33.1346 27.8581 33.0673 28.03 33.0673 28.2161C33.0673 28.3737 33.1077 28.5313 33.1885 28.6602C33.2693 28.7891 33.4039 28.918 33.5789 29.0469C33.754 29.1758 34.0098 29.2904 34.3329 29.4049C34.481 29.4622 34.6291 29.5339 34.7907 29.6198C34.9523 29.7057 35.1004 29.8203 35.235 29.9492C35.3696 30.0781 35.4908 30.25 35.5716 30.4362C35.6658 30.6224 35.7062 30.8516 35.7062 31.1237C35.7062 31.3958 35.6658 31.6107 35.5716 31.8112C35.4773 32.0117 35.3562 32.1836 35.1946 32.3411C35.033 32.4844 34.858 32.599 34.6561 32.6706C34.4541 32.7422 34.2521 32.7852 34.0232 32.7852C33.727 32.7852 33.4578 32.7135 33.202 32.5846C32.9461 32.4557 32.7307 32.2695 32.5422 32.0404C32.3537 31.8112 32.1922 31.582 32.071 31.3242L32.5961 30.9375C32.7172 31.1667 32.8519 31.3815 32.9865 31.5534L33 31.5677Z" fill="#E0E0E0"/>
<path d="M39.2607 26.8984H42.7344V27.5573H41.3342V32.6992H40.6744V27.5573H39.2742V26.8984H39.2607Z" fill="#E0E0E0"/>
<path d="M46.8005 30.5221L46.7332 30.6654L45.9253 32.7135H45.1848L47.716 26.612L50.2473 32.7135H49.5067L48.7124 30.7226L48.645 30.5508L47.7026 28.2161L46.787 30.5221H46.8005ZM46.5312 30.3073H48.9547L49.1836 30.9661H46.2889L46.5178 30.3073H46.5312Z" fill="#E0E0E0"/>
<path d="M54.6769 26.8984V30.7943C54.6769 31.1953 54.7846 31.5104 54.9865 31.7539C55.1885 31.9974 55.4847 32.1263 55.8752 32.1263C56.2656 32.1263 56.5618 32.0117 56.7638 31.7539C56.9657 31.5104 57.0734 31.1953 57.0734 30.7943V26.8984H57.7332V30.7943C57.7332 31.0807 57.6928 31.3529 57.5985 31.5964C57.5043 31.8398 57.3831 32.0547 57.2215 32.2266C57.06 32.3984 56.858 32.5417 56.6291 32.6419C56.4002 32.7422 56.1444 32.7852 55.8617 32.7852C55.5789 32.7852 55.3231 32.7279 55.0942 32.6419C54.8654 32.5417 54.6634 32.3984 54.5018 32.2266C54.3403 32.0547 54.2191 31.8398 54.1248 31.5964C54.0441 31.3529 53.9902 31.0807 53.9902 30.7943V26.8984H54.6499H54.6769Z" fill="#E0E0E0"/>
<path d="M62.7148 26.8984V32.7135H62.0551V26.8984H62.7148ZM62.4186 26.8984H63.5361C63.8862 26.8984 64.2093 26.9701 64.4786 27.1133C64.7613 27.2565 64.9768 27.457 65.1383 27.7148C65.2999 27.9727 65.3807 28.2878 65.3807 28.6458C65.3807 29.0039 65.2999 29.3047 65.1383 29.5768C64.9768 29.8346 64.7479 30.0352 64.4786 30.1784C64.1958 30.3216 63.8862 30.3932 63.5361 30.3932H62.4186V29.763H63.5361C63.765 29.763 63.9804 29.7201 64.1555 29.6341C64.3305 29.5482 64.4786 29.4193 64.5728 29.2474C64.6805 29.0755 64.7209 28.875 64.7209 28.6458C64.7209 28.4167 64.6671 28.2018 64.5728 28.0443C64.4651 27.8724 64.3305 27.7435 64.1555 27.6576C63.9804 27.5716 63.765 27.5286 63.5361 27.5286H62.4186V26.9128V26.8984ZM63.765 29.849L65.7173 32.7135H64.896L63.0245 29.849H63.765Z" fill="#E0E0E0"/>
<path d="M70.5777 30.5221L70.5104 30.6654L69.7026 32.7135H68.9621L71.4933 26.612L74.0245 32.7135H73.284L72.4896 30.7226L72.4223 30.5508L71.4798 28.2161L70.5643 30.5221H70.5777ZM70.3084 30.3073H72.7319L72.9608 30.9661H70.0661L70.295 30.3073H70.3084Z" fill="#E0E0E0"/>
<path d="M82.6279 26.8984V33L78.4945 28.388V32.7135H77.8348V26.612L81.9682 31.2239V26.8984H82.6279Z" fill="#E0E0E0"/>
<path d="M86.4517 26.8984H89.9253V27.5573H88.5251V32.6992H87.8654V27.5573H86.4651V26.8984H86.4517Z" fill="#E0E0E0"/>
</g>
<defs>
<clipPath id="clip0_101_128">
<rect width="110" height="33" fill="white"/>
</clipPath>
</defs>
</svg>
